# File created by Blade
# Date/Time:  Tue Sep 30 19:15:05 2014
# Frame Rate: 120.000 fps
#------------------------------------------------------
:FULLY-SPECIFIED
:DEGREES
2202
root 0.511899 32.879836 -2.352195 20.421127 -41.738496 -17.562685
Spine -5.646982 7.681702 4.294271
Head -7.352620 -16.531747 15.637222
LeftShoulder 22.330078 8.431466 20.650132
LeftArm -8.418232 -14.115859 -81.992185
LeftForeArm -136.887664 5.865405 -6.229602
LeftHand 0.000013 30.026160 3.466250
LeftHandThumb1 30.357831 13.997178 22.438692
RightShoulder -11.113292 -21.242012 -18.445505
RightArm 0.199182 -20.871498 79.622339
RightForeArm 27.022708 -11.808093 21.861853
RightHand 0.000042 -10.563611 12.707307
RightHandThumb1 30.482666 -12.916435 -20.793814
LeftUpLeg -16.187853 19.472425 -2.661942
LeftLeg 12.565100 0.000000 0.000000
LeftFoot -19.862395 31.442659 -4.037829
LeftToeBase 5.042200 0.000000 0.000000
RightUpLeg -81.629564 -30.394342 0.354335
RightLeg 130.208496 0.000000 0.000000
RightFoot 31.524804 -4.074432 -1.836507
RightToeBase 18.566799 -0.000000 0.000000
2203
root 0.511399 32.880034 -2.359295 20.417748 -41.826179 -17.606923
Spine -5.596241 7.702090 4.285858
Head -7.270002 -16.458882 15.613752
LeftShoulder 22.322075 8.353173 20.666473
LeftArm -8.326576 -14.150673 -81.973381
LeftForeArm -136.914376 5.908682 -6.280860
LeftHand -0.000078 30.062081 3.464171
LeftHandThumb1 30.357831 13.997178 22.438692
RightShoulder -11.071094 -21.221007 -18.459763
RightArm 0.151082 -20.865922 79.615998
RightForeArm 27.013433 -11.866826 21.966817
RightHand -0.000010 -10.515001 12.805774
RightHandThumb1 30.482666 -12.916435 -20.793814
LeftUpLeg -16.151951 19.505090 -2.611178
LeftLeg 12.580200 -0.000000 0.000000
LeftFoot -19.811057 31.464011 -3.876683
LeftToeBase 5.093100 -0.000000 -0.000000
RightUpLeg -81.629740 -30.413832 0.371807
RightLeg 130.034607 -0.000000 -0.000000
RightFoot 31.341234 -4.264287 -1.891509
RightToeBase 18.791700 -0.000000 -0.000000
2204
root 0.511999 32.878733 -2.366595 20.382317 -41.891296 -17.651794
Spine -5.500630 7.770648 4.283903
Head -7.219333 -16.427013 15.639549
LeftShoulder 22.272582 8.192529 20.693690
LeftArm -8.194658 -14.176379 -81.978940
LeftForeArm -136.937606 6.027797 -6.411141
LeftHand -0.000029 30.042038 3.593695
LeftHandThumb1 30.357831 13.997178 22.438692
RightShoulder -11.014381 -21.244506 -18.467748
RightArm 0.097932 -20.907441 79.608876
RightForeArm 27.100134 -11.895472 21.939816
RightHand 0.000033 -10.662984 12.752141
RightHandThumb1 30.482666 -12.916435 -20.793814
LeftUpLeg -16.099584 19.534361 -2.568439
LeftLeg 12.606400 0.000000 0.000000
LeftFoot -19.908553 31.508795 -4.002693
LeftToeBase 5.110600 -0.000000 -0.000000
RightUpLeg -81.599289 -30.448417 0.373378
RightLeg 129.892395 0.000000 0.000000
RightFoot 31.167754 -4.400066 -2.137722
RightToeBase 18.543900 -0.000000 -0.000000
2205
root 0.508199 32.879035 -2.380395 20.431755 -41.950453 -17.768257
Spine -5.425247 7.776708 4.339341
Head -7.206766 -16.321683 15.666593
LeftShoulder 22.239027 8.138398 20.703139
LeftArm -8.104933 -14.192368 -81.942788
LeftForeArm -136.980777 6.007704 -6.399605
LeftHand 0.000027 30.053661 3.470064
LeftHandThumb1 30.357831 13.997178 22.438692
RightShoulder -10.983977 -21.270632 -18.469750
RightArm 0.149915 -20.911183 79.590123
RightForeArm 27.166097 -11.905441 21.899914
RightHand 0.000038 -10.704478 12.678404
RightHandThumb1 30.482666 -12.916435 -20.793814
LeftUpLeg -16.099235 19.546395 -2.473532
LeftLeg 12.661800 -0.000000 -0.000000
LeftFoot -19.958862 31.548219 -4.036427
LeftToeBase 5.009500 0.000000 0.000000
RightUpLeg -81.614510 -30.451709 0.474814
RightLeg 129.767700 -0.000000 -0.000000
RightFoot 30.977738 -4.605295 -2.204675
RightToeBase 18.736601 -0.000000 -0.000000
2206
root 0.507599 32.878733 -2.390095 20.470798 -42.024069 -17.819587
Spine -5.403535 7.737985 4.335807
Head -7.157672 -16.191713 15.695264
LeftShoulder 22.239881 8.131020 20.716949
LeftArm -7.995015 -14.216747 -81.893444
LeftForeArm -137.017142 6.017040 -6.417523
LeftHand -0.000030 30.085831 3.478267
LeftHandThumb1 30.357831 13.997178 22.438692
RightShoulder -10.980204 -21.272960 -18.459864
RightArm 0.238026 -20.902451 79.540677
RightForeArm 27.157991 -11.846774 21.810423
RightHand 0.000039 -10.600015 12.753011
RightHandThumb1 30.482666 -12.916435 -20.793814
LeftUpLeg -16.121197 19.557288 -2.443652
LeftLeg 12.693000 -0.000000 -0.000000
LeftFoot -20.008411 31.598690 -4.087803
LeftToeBase 5.025900 0.000000 0.000000
RightUpLeg -81.672718 -30.458883 0.527142
RightLeg 129.668396 0.000000 0.000000
RightFoot 30.826507 -4.640918 -2.444006
RightToeBase 18.325300 -0.000000 -0.000000
2207
root 0.510299 32.876635 -2.394195 20.452003 -42.114799 -17.805081
Spine -5.367438 7.673735 4.288542
Head -7.094225 -16.047016 15.712164
LeftShoulder 22.232309 8.145616 20.723648
LeftArm -7.859504 -14.224883 -81.858790
LeftForeArm -137.073221 5.990419 -6.401916
LeftHand -0.000045 30.162070 3.599639
LeftHandThumb1 30.357831 13.997178 22.438692
RightShoulder -10.982982 -21.258749 -18.461424
RightArm 0.240028 -20.902939 79.526227
RightForeArm 27.109405 -11.846620 21.851491
RightHand 0.000056 -10.576972 12.751572
RightHandThumb1 30.482666 -12.916435 -20.793814
LeftUpLeg -16.109360 19.566394 -2.471264
LeftLeg 12.689500 0.000000 0.000000
LeftFoot -20.011639 31.661038 -4.056324
LeftToeBase 5.072100 0.000000 0.000000
RightUpLeg -81.704450 -30.465317 0.459841
RightLeg 129.581406 0.000000 0.000000
RightFoot 30.726726 -4.729171 -2.521055
RightToeBase 18.740200 0.000000 0.000000
2208
root 0.508599 32.875934 -2.401195 20.458472 -42.191945 -17.841608
Spine -5.326753 7.607966 4.279124
Head -7.028746 -15.905901 15.753117
LeftShoulder 22.225496 8.157507 20.727142
LeftArm -7.780971 -14.217318 -81.837546
LeftForeArm -137.116323 5.984091 -6.404809
LeftHand 0.000005 30.138379 3.585198
LeftHandThumb1 30.357831 13.997178 22.438692
RightShoulder -10.988555 -21.261336 -18.449155
RightArm 0.265443 -20.881490 79.489875
RightForeArm 27.061706 -11.806930 21.826672
RightHand -0.000047 -10.572104 12.874382
RightHandThumb1 30.482666 -12.916435 -20.793814
LeftUpLeg -16.102801 19.641685 -2.467014
LeftLeg 12.699200 -0.000000 0.000000
LeftFoot -20.088210 31.698648 -4.137936
LeftToeBase 5.124700 -0.000000 -0.000000
RightUpLeg -81.726239 -30.470574 0.448340
RightLeg 129.527405 -0.000000 -0.000000
RightFoot 30.646883 -4.827182 -2.607307
RightToeBase 18.432501 -0.000000 0.000000
2209
root 0.502299 32.878535 -2.414895 20.540978 -42.261738 -17.960271
Spine -5.308885 7.559825 4.319040
Head -6.962947 -15.789179 15.805505
LeftShoulder 22.252146 8.177399 20.737245
LeftArm -7.715883 -14.237683 -81.835840
LeftForeArm -137.163805 5.975415 -6.406184
LeftHand -0.000034 30.142542 3.516969
LeftHandThumb1 30.357831 13.997178 22.438692
RightShoulder -10.970815 -21.272736 -18.443081
RightArm 0.307364 -20.835133 79.468181
RightForeArm 26.922263 -11.737872 21.831308
RightHand -0.000028 -10.393159 12.758716
RightHandThumb1 30.482666 -12.916435 -20.793814
LeftUpLeg -16.119255 19.705579 -2.373472
LeftLeg 12.727300 0.000000 0.000000
LeftFoot -20.086042 31.693160 -4.074748
LeftToeBase 5.048400 0.000000 0.000000
RightUpLeg -81.783599 -30.450985 0.552373
RightLeg 129.477707 -0.000000 -0.000000
RightFoot 30.630924 -4.872711 -2.751946
RightToeBase 18.252501 -0.000000 -0.000000
2210
root 0.498999 32.879332 -2.423095 20.592362 -42.355268 -18.041924
Spine -5.288966 7.537492 4.331684
Head -6.903704 -15.701253 15.853217
LeftShoulder 22.285574 8.194536 20.747655
LeftArm -7.656151 -14.257234 -81.864257
LeftForeArm -137.207571 6.016896 -6.459927
LeftHand -0.000012 30.103103 3.501837
LeftHandThumb1 30.357831 13.997178 22.438692
RightShoulder -10.968335 -21.316188 -18.451007
RightArm 0.425950 -20.845043 79.449587
RightForeArm 26.898386 -11.694548 21.779665
RightHand 0.000028 -10.491240 12.801893
RightHandThumb1 30.482666 -12.916435 -20.793814
LeftUpLeg -16.114841 19.785948 -2.332674
LeftLeg 12.727300 0.000000 0.000000
LeftFoot -20.094728 31.714298 -4.042126
LeftToeBase 5.067900 -0.000000 -0.000000
RightUpLeg -81.824326 -30.406593 0.588752
RightLeg 129.449707 -0.000000 -0.000000
RightFoot 30.579854 -4.804969 -2.888689
RightToeBase 18.389900 0.000000 0.000000
2211
root 0.496399 32.880435 -2.430395 20.635333 -42.432395 -18.099121
Spine -5.289321 7.483144 4.325453
Head -6.827615 -15.622503 15.910872
LeftShoulder 22.329187 8.224047 20.762811
LeftArm -7.610404 -14.252506 -81.921867
LeftForeArm -137.271682 6.086175 -6.547947
LeftHand 0.000015 30.051796 3.454004
LeftHandThumb1 30.357831 13.997178 22.438692
RightShoulder -10.948407 -21.364498 -18.433805
RightArm 0.446015 -20.821203 79.419554
RightForeArm 26.819383 -11.676864 21.817768
RightHand -0.000051 -10.453307 12.803323
RightHandThumb1 30.482666 -12.916435 -20.793814
LeftUpLeg -16.113797 19.814009 -2.302828
LeftLeg 12.713600 -0.000000 0.000000
LeftFoot -20.076924 31.772499 -3.985562
LeftToeBase 5.103500 0.000000 0.000000
RightUpLeg -81.851465 -30.387895 0.562046
RightLeg 129.424301 0.000000 0.000000
RightFoot 30.645744 -4.701328 -2.833393
RightToeBase 18.338600 -0.000000 -0.000000
2212
root 0.492599 32.881835 -2.436295 20.672454 -42.521704 -18.151782
Spine -5.287491 7.443958 4.309744
Head -6.764940 -15.560413 15.958057
LeftShoulder 22.382807 8.251968 20.759342
LeftArm -7.641348 -14.249955 -81.971981
LeftForeArm -137.342688 6.083902 -6.561687
LeftHand -0.000026 30.027218 3.371971
LeftHandThumb1 30.357831 13.997178 22.438692
RightShoulder -10.962732 -21.364100 -18.405758
RightArm 0.422172 -20.862842 79.392409
RightForeArm 26.756920 -11.649128 21.824976
RightHand -0.000029 -10.460879 12.844191
RightHandThumb1 30.482666 -12.916435 -20.793814
LeftUpLeg -16.086955 19.863644 -2.285745
LeftLeg 12.655100 0.000000 0.000000
LeftFoot -20.128524 31.853768 -4.032791
LeftToeBase 5.208100 0.000000 0.000000
RightUpLeg -81.881579 -30.387215 0.542067
RightLeg 129.412704 -0.000000 -0.000000
RightFoot 30.737360 -4.615480 -2.748627
RightToeBase 18.286100 -0.000000 -0.000000
